<svg width="21" height="21" viewBox="0 0 21 21" fill="none" xmlns="http://www.w3.org/2000/svg">
<path fill-rule="evenodd" clip-rule="evenodd" d="M10.6666 0.666626C5.14383 0.666626 0.666656 5.14375 0.666656 10.6666C0.666656 16.1894 5.14383 20.6666 10.6666 20.6666C16.1895 20.6666 20.6667 16.1895 20.6667 10.6666C20.6667 5.14375 16.1895 0.666626 10.6666 0.666626ZM10.6666 18.6666C6.25546 18.6666 2.66667 15.0778 2.66667 10.6666C2.66667 6.25539 6.25542 2.66664 10.6666 2.66664C15.0779 2.66664 18.6666 6.25539 18.6666 10.6666C18.6666 15.0778 15.0779 18.6666 10.6666 18.6666ZM11.9189 6.66662C11.9189 7.39168 11.3909 7.91664 10.6768 7.91664C9.93379 7.91664 9.41882 7.39164 9.41882 6.65275C9.41882 5.94259 9.94771 5.41665 10.6768 5.41665C11.3909 5.41665 11.9189 5.94259 11.9189 6.66662ZM9.66885 9.66662H11.6688V15.6666H9.66885V9.66662Z" fill="black"/>
</svg>
