<svg width="21" height="21" viewBox="0 0 21 21" fill="none" xmlns="http://www.w3.org/2000/svg">
<path d="M3.39639 18.0885C2.44129 17.166 1.67946 16.0625 1.15537 14.8425C0.631284 13.6225 0.355422 12.3103 0.343883 10.9825C0.332345 9.65467 0.585362 8.33787 1.08817 7.10891C1.59098 5.87995 2.33351 4.76343 3.27244 3.8245C4.21136 2.88557 5.32788 2.14304 6.55685 1.64023C7.78581 1.13743 9.10261 0.884408 10.4304 0.895946C11.7582 0.907485 13.0704 1.18335 14.2904 1.70744C15.5105 2.23153 16.6139 2.99335 17.5364 3.94845C19.358 5.83447 20.3659 8.3605 20.3431 10.9825C20.3203 13.6044 19.2687 16.1126 17.4146 17.9666C15.5605 19.8207 13.0524 20.8724 10.4304 20.8952C7.80843 20.918 5.28241 19.91 3.39639 18.0885ZM4.80639 16.6785C6.30751 18.1796 8.34348 19.0229 10.4664 19.0229C12.5893 19.0229 14.6253 18.1796 16.1264 16.6785C17.6275 15.1773 18.4708 13.1414 18.4708 11.0185C18.4708 8.89554 17.6275 6.85958 16.1264 5.35845C14.6253 3.85733 12.5893 3.014 10.4664 3.014C8.34348 3.014 6.30751 3.85733 4.80639 5.35845C3.30526 6.85958 2.46194 8.89554 2.46194 11.0185C2.46194 13.1414 3.30526 15.1773 4.80639 16.6785ZM14.7064 8.18845L11.8764 11.0185L14.7064 13.8485L13.2964 15.2585L10.4664 12.4285L7.63639 15.2585L6.22639 13.8485L9.05639 11.0185L6.22639 8.18845L7.63639 6.77845L10.4664 9.60845L13.2964 6.77845L14.7064 8.18845Z" fill="#B88731"/>
</svg>
