<svg width="21" height="21" viewBox="0 0 21 21" fill="none" xmlns="http://www.w3.org/2000/svg">
<path d="M5.71914 0.548462C5.6745 0.910909 5.65218 1.278 5.65218 1.64551C5.65218 3.82947 6.43789 5.87758 7.75485 7.1434C7.48253 8.37969 6.75485 9.29952 5.79057 10.0295C7.95575 14.3248 13.2013 14.3755 15.4379 10.1814C14.4379 9.43454 13.737 8.48517 13.5049 7.18137C14.8486 5.91977 15.6522 3.85226 15.6522 1.64551C15.6522 1.278 15.6254 0.910909 15.5807 0.548462H5.71914ZM3.55218 11.3037C2.60709 11.7257 1.60441 12.0885 0.652176 12.4472C0.652176 15.8227 4.93789 20.5485 10.6522 20.5485C16.3665 20.5485 20.6522 15.8227 20.6522 12.4472C19.6165 12.1223 18.6254 11.7932 17.7236 11.4219C17.3218 13.097 16.4022 14.3712 15.2057 15.2404C15.2906 15.4177 15.3397 15.616 15.3397 15.8227C15.3397 16.5864 14.6745 17.2151 13.8665 17.2151C13.6209 17.2151 13.3932 17.1561 13.1879 17.0548C13.0852 18.4388 12.0182 19.578 10.6522 19.578C9.2861 19.578 8.21914 18.4388 8.11646 17.0548C7.9111 17.1561 7.68343 17.2151 7.43789 17.2151C6.62985 17.2151 5.96468 16.5864 5.96468 15.8227C5.96468 15.616 6.01378 15.4177 6.10307 15.2404C4.87539 14.3502 3.93343 13.0379 3.55218 11.3037ZM10.6522 14.8523C9.72361 14.8523 8.9111 15.7046 8.9111 16.8354C8.9111 17.9662 9.72361 18.8185 10.6522 18.8185C11.5807 18.8185 12.3932 17.9662 12.3932 16.8354C12.3932 15.7046 11.5807 14.8523 10.6522 14.8523ZM7.43789 15.1898C7.06289 15.1898 6.76825 15.4683 6.76825 15.8227C6.76825 16.1772 7.06289 16.4556 7.43789 16.4556C7.81289 16.4556 8.10753 16.1772 8.10753 15.8227C8.10753 15.4683 7.81289 15.1898 7.43789 15.1898ZM13.8665 15.1898C13.4915 15.1898 13.1968 15.4683 13.1968 15.8227C13.1968 16.1772 13.4915 16.4556 13.8665 16.4556C14.2415 16.4556 14.5361 16.1772 14.5361 15.8227C14.5361 15.4683 14.2415 15.1898 13.8665 15.1898Z" fill="black"/>
</svg>
