<svg width="20" height="21" viewBox="0 0 20 21" fill="none" xmlns="http://www.w3.org/2000/svg">
<path d="M16 16.5005C16.5304 16.5005 17.0391 16.7112 17.4142 17.0863C17.7893 17.4613 18 17.9701 18 18.5005C18 19.0309 17.7893 19.5396 17.4142 19.9147C17.0391 20.2898 16.5304 20.5005 16 20.5005C15.4696 20.5005 14.9609 20.2898 14.5858 19.9147C14.2107 19.5396 14 19.0309 14 18.5005C14 17.3905 14.89 16.5005 16 16.5005ZM0 0.500488H3.27L4.21 2.50049H19C19.2652 2.50049 19.5196 2.60585 19.7071 2.79338C19.8946 2.98092 20 3.23527 20 3.50049C20 3.67049 19.95 3.84049 19.88 4.00049L16.3 10.4705C15.96 11.0805 15.3 11.5005 14.55 11.5005H7.1L6.2 13.1305L6.17 13.2505C6.17 13.3168 6.19634 13.3804 6.24322 13.4273C6.29011 13.4741 6.3537 13.5005 6.42 13.5005H18V15.5005H6C5.46957 15.5005 4.96086 15.2898 4.58579 14.9147C4.21071 14.5396 4 14.0309 4 13.5005C4 13.1505 4.09 12.8205 4.24 12.5405L5.6 10.0905L2 2.50049H0V0.500488ZM6 16.5005C6.53043 16.5005 7.03914 16.7112 7.41421 17.0863C7.78929 17.4613 8 17.9701 8 18.5005C8 19.0309 7.78929 19.5396 7.41421 19.9147C7.03914 20.2898 6.53043 20.5005 6 20.5005C5.46957 20.5005 4.96086 20.2898 4.58579 19.9147C4.21071 19.5396 4 19.0309 4 18.5005C4 17.3905 4.89 16.5005 6 16.5005ZM15 9.50049L17.78 4.50049H5.14L7.5 9.50049H15Z" fill="black"/>
</svg>
