<svg width="23" height="23" viewBox="0 0 23 23" fill="none" xmlns="http://www.w3.org/2000/svg">
<path d="M4.54672 6.19484H3.37026C2.74623 6.19484 2.14775 6.44274 1.70649 6.884C1.26523 7.32525 1.01733 7.92373 1.01733 8.54777V19.1359C1.01733 19.76 1.26523 20.3584 1.70649 20.7997C2.14775 21.241 2.74623 21.4889 3.37026 21.4889H13.9584C14.5825 21.4889 15.1809 21.241 15.6222 20.7997C16.0635 20.3584 16.3114 19.76 16.3114 19.1359V17.9595" stroke="black" stroke-width="2" stroke-linecap="round" stroke-linejoin="round"/>
<path d="M15.1349 3.84191L18.6643 7.3713M20.2937 5.70661C20.757 5.24326 21.0173 4.61483 21.0173 3.95956C21.0173 3.30429 20.757 2.67586 20.2937 2.21251C19.8303 1.74917 19.2019 1.48886 18.5466 1.48886C17.8914 1.48886 17.2629 1.74917 16.7996 2.21251L6.89966 12.0772V15.6065H10.429L20.2937 5.70661Z" stroke="black" stroke-width="2" stroke-linecap="round" stroke-linejoin="round"/>
</svg>
