<svg width="12" height="12" viewBox="0 0 12 12" fill="none" xmlns="http://www.w3.org/2000/svg">
<path d="M0.554717 11.9114C0.397547 11.9114 0.265895 11.852 0.15976 11.7333C0.0536244 11.6146 0.000371723 11.4678 1.91281e-06 11.293C-0.000367897 11.1183 0.0528848 10.9715 0.15976 10.8528C0.266635 10.7341 0.398287 10.6747 0.554717 10.6747H4.99243V3.76478C4.75206 3.67203 4.54404 3.52775 4.36838 3.33194C4.19272 3.13614 4.06329 2.90426 3.98008 2.63632H2.21886L3.74433 6.62459C3.79055 6.73795 3.81829 6.85399 3.82753 6.97272C3.83678 7.09144 3.83216 7.21243 3.81367 7.33568C3.73046 7.80974 3.50173 8.17559 3.12748 8.43323C2.75324 8.69087 2.35791 8.81969 1.9415 8.81969C1.5251 8.81969 1.12996 8.69087 0.756078 8.43323C0.3822 8.17559 0.153288 7.80974 0.0693412 7.33568C0.0508508 7.21201 0.0462281 7.09102 0.0554733 6.97272C0.0647186 6.85441 0.0924544 6.73837 0.138681 6.62459L1.66415 2.63632H1.10943C0.952262 2.63632 0.82061 2.57716 0.714475 2.45885C0.608339 2.34054 0.555086 2.19359 0.554717 2.01798C0.554347 1.84237 0.607599 1.69562 0.714475 1.57772C0.82135 1.45982 0.953002 1.40046 1.10943 1.39964H3.98008C4.09102 1.03894 4.2898 0.742759 4.5764 0.511089C4.863 0.279419 5.18658 0.163377 5.54715 0.162965C5.90771 0.162553 6.2313 0.278594 6.5179 0.511089C6.8045 0.743584 7.00328 1.03977 7.11422 1.39964H9.98487C10.142 1.39964 10.2739 1.459 10.3804 1.57772C10.4869 1.69644 10.54 1.84319 10.5396 2.01798C10.5392 2.19276 10.486 2.33972 10.3798 2.45885C10.2737 2.57799 10.142 2.63714 9.98487 2.63632H9.43015L10.9556 6.62459C11.0018 6.73795 11.0296 6.85399 11.0388 6.97272C11.0481 7.09144 11.0434 7.21243 11.025 7.33568C10.9418 7.80974 10.713 8.17559 10.3388 8.43323C9.96453 8.69087 9.5692 8.81969 9.1528 8.81969C8.73639 8.81969 8.34125 8.69087 7.96737 8.43323C7.59349 8.17559 7.36458 7.80974 7.28063 7.33568C7.26214 7.21201 7.25752 7.09102 7.26677 6.97272C7.27601 6.85441 7.30375 6.73837 7.34997 6.62459L8.87544 2.63632H7.11422C7.03101 2.90426 6.90158 3.13614 6.72592 3.33194C6.55026 3.52775 6.34224 3.67203 6.10186 3.76478V10.6747H10.5396C10.6968 10.6747 10.8286 10.7341 10.9351 10.8528C11.0416 10.9715 11.0947 11.1183 11.0943 11.293C11.0939 11.4678 11.0407 11.6148 10.9345 11.7339C10.8284 11.853 10.6968 11.9122 10.5396 11.9114H0.554717ZM8.11271 6.96468H10.1929L9.1528 4.27491L8.11271 6.96468ZM0.901413 6.96468H2.98159L1.9415 4.27491L0.901413 6.96468ZM5.54715 2.63632C5.70432 2.63632 5.83616 2.57695 5.94266 2.45823C6.04917 2.33951 6.10223 2.19276 6.10186 2.01798C6.10149 1.84319 6.04824 1.69644 5.94211 1.57772C5.83597 1.459 5.70432 1.39964 5.54715 1.39964C5.38998 1.39964 5.25833 1.459 5.15219 1.57772C5.04606 1.69644 4.9928 1.84319 4.99243 2.01798C4.99206 2.19276 5.04532 2.33972 5.15219 2.45885C5.25907 2.57799 5.39072 2.63714 5.54715 2.63632Z" fill="#B88731"/>
</svg>
