<svg width="21" height="22" viewBox="0 0 21 22" fill="none" xmlns="http://www.w3.org/2000/svg">
<path d="M10.5716 18.305L10.4716 18.4196L10.3616 18.305C5.61158 13.3663 2.47158 10.1005 2.47158 6.78885C2.47158 4.49707 3.97158 2.77823 5.97158 2.77823C7.51158 2.77823 9.01158 3.92412 9.54158 5.48253H11.4016C11.9316 3.92412 13.4316 2.77823 14.9716 2.77823C16.9716 2.77823 18.4716 4.49707 18.4716 6.78885C18.4716 10.1005 15.3316 13.3663 10.5716 18.305ZM14.9716 0.48645C13.2316 0.48645 11.5616 1.41462 10.4716 2.8699C9.38158 1.41462 7.71158 0.48645 5.97158 0.48645C2.89158 0.48645 0.471581 3.24805 0.471581 6.78885C0.471581 11.1089 3.87158 14.6497 9.02158 20.001L10.4716 21.5135L11.9216 20.001C17.0716 14.6497 20.4716 11.1089 20.4716 6.78885C20.4716 3.24805 18.0516 0.48645 14.9716 0.48645Z" fill="black"/>
</svg>
