<svg width="24" height="25" viewBox="0 0 24 25" fill="none" xmlns="http://www.w3.org/2000/svg">
<path d="M20.04 7.52911L14.28 3.49911C12.71 2.39911 10.3 2.45911 8.79 3.62911L3.78 7.5391C2.78 8.31911 1.99 9.91911 1.99 11.1791V18.0791C1.99 20.6291 4.06 22.7091 6.61 22.7091H17.39C19.94 22.7091 22.01 20.6391 22.01 18.0891V11.3091C22.01 9.95911 21.14 8.29911 20.04 7.52911ZM12.75 18.7091C12.75 19.1191 12.41 19.4591 12 19.4591C11.59 19.4591 11.25 19.1191 11.25 18.7091V15.7091C11.25 15.2991 11.59 14.9591 12 14.9591C12.41 14.9591 12.75 15.2991 12.75 15.7091V18.7091Z" fill="#CEA45D"/>
</svg>
