<svg width="29" height="28" viewBox="0 0 29 28" fill="none" xmlns="http://www.w3.org/2000/svg">
<path fill-rule="evenodd" clip-rule="evenodd" d="M0.707199 2.93958C0.707199 2.35169 0.919418 1.78787 1.29717 1.37216C1.67492 0.956457 2.18726 0.722916 2.72148 0.722916H26.8929C27.4271 0.722916 27.9395 0.956457 28.3172 1.37216C28.695 1.78787 28.9072 2.35169 28.9072 2.93958C28.9072 3.52748 28.695 4.0913 28.3172 4.507C27.9395 4.92271 27.4271 5.15625 26.8929 5.15625H2.72148C2.18726 5.15625 1.67492 4.92271 1.29717 4.507C0.919418 4.0913 0.707199 3.52748 0.707199 2.93958ZM0.707199 14.0229C0.707199 13.435 0.919418 12.8712 1.29717 12.4555C1.67492 12.0398 2.18726 11.8062 2.72148 11.8062H26.8929C27.4271 11.8062 27.9395 12.0398 28.3172 12.4555C28.695 12.8712 28.9072 13.435 28.9072 14.0229C28.9072 14.6108 28.695 15.1746 28.3172 15.5903C27.9395 16.006 27.4271 16.2396 26.8929 16.2396H2.72148C2.18726 16.2396 1.67492 16.006 1.29717 15.5903C0.919418 15.1746 0.707199 14.6108 0.707199 14.0229ZM0.707199 25.1062C0.707199 24.5184 0.919418 23.9545 1.29717 23.5388C1.67492 23.1231 2.18726 22.8896 2.72148 22.8896H14.8072C15.3414 22.8896 15.8538 23.1231 16.2315 23.5388C16.6093 23.9545 16.8215 24.5184 16.8215 25.1062C16.8215 25.6941 16.6093 26.258 16.2315 26.6737C15.8538 27.0894 15.3414 27.3229 14.8072 27.3229H2.72148C2.18726 27.3229 1.67492 27.0894 1.29717 26.6737C0.919418 26.258 0.707199 25.6941 0.707199 25.1062Z" fill="black"/>
</svg>
