<svg width="21" height="23" viewBox="0 0 21 23" fill="none" xmlns="http://www.w3.org/2000/svg">
<path d="M20.5949 16.6854L18.209 13.6107V9.25238C18.2938 8.09357 17.9598 6.93953 17.2456 5.92369C16.5313 4.90785 15.466 4.07168 14.1727 3.51187C14.19 3.33347 14.19 3.1543 14.1727 2.9759C14.1588 2.61652 14.0549 2.26281 13.8671 1.93501C13.6792 1.6072 13.411 1.31172 13.0778 1.06546C12.7446 0.8192 12.3529 0.626986 11.9252 0.499807C11.4974 0.372627 11.042 0.312976 10.5849 0.324263C10.1279 0.312976 9.67243 0.372627 9.24469 0.499807C8.81696 0.626986 8.42529 0.8192 8.09209 1.06546C7.75889 1.31172 7.49068 1.6072 7.3028 1.93501C7.11492 2.26281 7.01106 2.61652 6.99714 2.9759C6.97006 3.15392 6.97006 3.33385 6.99714 3.51187C5.70389 4.07168 4.63855 4.90785 3.92429 5.92369C3.21003 6.93953 2.87602 8.09357 2.96088 9.25238V13.6107L0.574995 16.6854C0.368613 16.952 0.255898 17.2568 0.24836 17.5688C0.240822 17.8808 0.338731 18.1887 0.532089 18.4612C0.725447 18.7337 1.00733 18.961 1.34894 19.1198C1.69055 19.2787 2.07966 19.3634 2.47652 19.3653H5.65172C5.73471 20.3405 6.29487 21.2524 7.21466 21.9099C8.13445 22.5673 9.34237 22.9191 10.5849 22.8914C11.8275 22.9191 13.0354 22.5673 13.9552 21.9099C14.875 21.2524 15.4352 20.3405 15.5181 19.3653H18.6933C19.0902 19.3634 19.4793 19.2787 19.8209 19.1198C20.1625 18.961 20.4444 18.7337 20.6378 18.4612C20.8311 18.1887 20.929 17.8808 20.9215 17.5688C20.914 17.2568 20.8012 16.952 20.5949 16.6854ZM9.23951 2.9759C9.2714 2.71886 9.43012 2.48188 9.68163 2.31578C9.93314 2.14967 10.2574 2.06765 10.5849 2.08732C10.9124 2.06765 11.2367 2.14967 11.4882 2.31578C11.7397 2.48188 11.8985 2.71886 11.9304 2.9759C11.4823 2.95384 11.033 2.95384 10.5849 2.9759C10.1369 2.95384 9.68754 2.95384 9.23951 2.9759ZM10.5849 21.1283C9.93673 21.154 9.3 20.9868 8.80141 20.6602C8.30282 20.3335 7.9789 19.8712 7.89409 19.3653H13.2758C13.191 19.8712 12.867 20.3335 12.3684 20.6602C11.8699 20.9868 11.2331 21.154 10.5849 21.1283ZM2.47652 17.6022L4.88034 14.5416L5.20324 14.1043V9.25238C5.19893 8.1961 5.57186 7.16008 6.27958 6.26224C6.76791 5.73603 7.42091 5.31797 8.17524 5.04861C8.92958 4.77925 9.75964 4.66772 10.5849 4.72485C11.4102 4.66772 12.2403 4.77925 12.9946 5.04861C13.7489 5.31797 14.4019 5.73603 14.8903 6.26224C15.598 7.16008 15.9709 8.1961 15.9666 9.25238V14.1043L16.2895 14.5416L18.6933 17.6022H2.47652Z" fill="black"/>
</svg>
