<svg width="21" height="24" viewBox="0 0 21 24" fill="none" xmlns="http://www.w3.org/2000/svg">
<path d="M17 11.6089V5.35789C17.0001 5.27895 16.9845 5.20078 16.9543 5.12785C16.9241 5.05492 16.8798 4.98867 16.824 4.93289L13.676 1.78489C13.5636 1.67233 13.4111 1.60903 13.252 1.60889H1.6C1.44087 1.60889 1.28826 1.6721 1.17574 1.78462C1.06321 1.89714 1 2.04976 1 2.20889V21.0089C1 21.168 1.06321 21.3206 1.17574 21.4332C1.28826 21.5457 1.44087 21.6089 1.6 21.6089H10M5 9.60889H13M5 5.60889H9M5 13.6089H8" stroke="black" stroke-width="1.5" stroke-linecap="round" stroke-linejoin="round"/>
<path d="M13 1.60889V5.00889C13 5.16802 13.0632 5.32063 13.1757 5.43315C13.2883 5.54567 13.4409 5.60889 13.6 5.60889H17M16.992 14.7339L19.548 15.3829C19.814 15.4509 20.001 15.6929 19.993 15.9669C19.821 21.7249 16.5 22.6089 16.5 22.6089C16.5 22.6089 13.179 21.7249 13.007 15.9669C13.0043 15.8336 13.0468 15.7033 13.1276 15.5972C13.2084 15.4912 13.3227 15.4156 13.452 15.3829L16.008 14.7339C16.331 14.6519 16.669 14.6519 16.992 14.7339Z" stroke="black" stroke-width="1.5" stroke-linecap="round" stroke-linejoin="round"/>
</svg>
