<svg width="21" height="20" viewBox="0 0 21 20" fill="none" xmlns="http://www.w3.org/2000/svg">
<path d="M10.36 16C10.71 16 11.006 15.879 11.248 15.637C11.49 15.395 11.6107 15.0993 11.61 14.75C11.6094 14.4007 11.4887 14.1047 11.248 13.862C11.0074 13.6193 10.7114 13.4987 10.36 13.5C10.0087 13.5013 9.71303 13.6223 9.47303 13.863C9.23303 14.1037 9.11203 14.3993 9.11003 14.75C9.10803 15.1007 9.22903 15.3967 9.47303 15.638C9.71703 15.8793 10.0127 16 10.36 16ZM9.46003 12.15H11.31C11.31 11.6 11.3727 11.1667 11.498 10.85C11.6234 10.5333 11.9774 10.1 12.56 9.54999C12.9934 9.11666 13.335 8.70399 13.585 8.31199C13.835 7.92 13.96 7.44933 13.96 6.9C13.96 5.96666 13.6184 5.25 12.935 4.75C12.2517 4.25 11.4434 4 10.51 4C9.56003 4 8.78936 4.25 8.19803 4.75C7.6067 5.25 7.19403 5.85 6.96003 6.55L8.61003 7.2C8.69336 6.9 8.88103 6.575 9.17303 6.225C9.46503 5.875 9.9107 5.7 10.51 5.7C11.0434 5.7 11.4434 5.846 11.71 6.138C11.9767 6.43 12.11 6.75066 12.11 7.1C12.11 7.43333 12.01 7.746 11.81 8.03799C11.61 8.32999 11.36 8.60066 11.06 8.84999C10.3267 9.49999 9.8767 9.99166 9.71003 10.325C9.54336 10.6583 9.46003 11.2667 9.46003 12.15ZM10.41 20C9.0267 20 7.7267 19.7376 6.51003 19.213C5.29337 18.6883 4.23503 17.9757 3.33503 17.075C2.43503 16.1743 1.7227 15.116 1.19804 13.9C0.673369 12.684 0.410702 11.384 0.410035 9.99999C0.409369 8.61599 0.672035 7.316 1.19804 6.1C1.72403 4.884 2.43637 3.82567 3.33503 2.925C4.2337 2.02434 5.29203 1.312 6.51003 0.788004C7.72803 0.264005 9.02803 0.00133838 10.41 5.0505e-06C11.792 -0.00132828 13.092 0.261338 14.31 0.788004C15.528 1.31467 16.5864 2.027 17.485 2.925C18.3837 3.823 19.0964 4.88133 19.623 6.1C20.1497 7.31866 20.412 8.61866 20.41 9.99999C20.408 11.3813 20.1454 12.6813 19.622 13.9C19.0987 15.1187 18.3864 16.177 17.485 17.075C16.5837 17.973 15.5254 18.6856 14.31 19.213C13.0947 19.7403 11.7947 20.0026 10.41 20Z" fill="#B88731"/>
</svg>
