<svg width="16" height="17" viewBox="0 0 16 17" fill="none" xmlns="http://www.w3.org/2000/svg">
<path d="M7.87616 16.3966C5.95949 16.3966 4.28949 15.719 2.86616 14.3637C1.44283 13.0085 0.626715 11.3157 0.417826 9.28549H2.12616C2.3206 10.8262 2.9631 12.1003 4.05366 13.1077C5.14422 14.1151 6.41838 14.6188 7.87616 14.6188C9.50116 14.6188 10.8798 14.0153 12.012 12.8082C13.1442 11.601 13.71 10.1305 13.7095 8.3966C13.7089 6.66268 13.1431 5.19246 12.012 3.98594C10.8809 2.77942 9.50227 2.17557 7.87616 2.17438C6.91783 2.17438 6.02199 2.41142 5.18866 2.88549C4.35533 3.35957 3.65394 4.01142 3.08449 4.84105H5.37616V6.61883H0.37616V1.2855H2.04283V3.37438C2.75116 2.42624 3.61588 1.6929 4.63699 1.17438C5.6581 0.655866 6.73783 0.396606 7.87616 0.396606C8.91783 0.396606 9.89366 0.607866 10.8037 1.03038C11.7137 1.4529 12.5053 2.02298 13.1787 2.74061C13.852 3.45824 14.3867 4.30268 14.7828 5.27394C15.1789 6.2452 15.3767 7.28609 15.3762 8.3966C15.3756 9.50712 15.1778 10.548 14.7828 11.5193C14.3878 12.4905 13.8531 13.335 13.1787 14.0526C12.5042 14.7702 11.7125 15.3406 10.8037 15.7637C9.89477 16.1868 8.91894 16.3978 7.87616 16.3966ZM10.2095 12.1299L7.04283 8.75216V3.95216H8.70949V8.04105L11.3762 10.8855L10.2095 12.1299Z" fill="#B88731"/>
</svg>
