<svg width="26" height="20" viewBox="0 0 26 20" fill="none" xmlns="http://www.w3.org/2000/svg">
<path d="M22.913 13.1667L8.30435 17.3889L6.21739 19.5L1 8.94444L3.08696 6.83333L17.6957 2.61111L19.7826 0.5L25 11.0556L22.913 13.1667Z" stroke="black" stroke-miterlimit="10" stroke-linecap="round" stroke-linejoin="round"/>
<path d="M13.7972 7.45615L11.8083 8.0937L11.6257 9.26009L12.4386 10.1066L14.4285 9.46803L15.2414 10.3156L15.0588 11.481L13.0699 12.1185M12.8028 7.77492L12.4877 6.76898M14.3795 12.8057L14.0643 11.7998M8.30435 17.3889L6.1047 12.9376M5.17391 11.0556L4.65217 10M21.3478 10L20.8261 8.94448M19.8953 7.06242L17.6957 2.61115" stroke="black" stroke-miterlimit="10" stroke-linecap="round" stroke-linejoin="round"/>
</svg>
