<svg width="35" height="36" viewBox="0 0 35 36" fill="none" xmlns="http://www.w3.org/2000/svg">
<path d="M27.7937 23.4921L11.9312 28.0864L9.66518 30.3836L4 18.8978L6.26607 16.6006L22.1286 12.0063L24.3946 9.70911L30.0598 21.1949L27.7937 23.4921Z" stroke="#B88731" stroke-miterlimit="10" stroke-linecap="round" stroke-linejoin="round"/>
<path d="M17.8956 17.2783L15.736 17.972L15.5377 19.2412L16.4203 20.1624L18.581 19.4675L19.4637 20.3898L19.2654 21.6578L17.1058 22.3516M16.8158 17.6252L16.4736 16.5306M18.5278 23.0993L18.1856 22.0047M11.9313 28.0865L9.54282 23.2429M8.53215 21.195L7.96564 20.0464M26.0942 20.0464L25.5277 18.8978M24.517 16.8499L22.1286 12.0063" stroke="#B88731" stroke-miterlimit="10" stroke-linecap="round" stroke-linejoin="round"/>
</svg>
