<svg width="18" height="21" viewBox="0 0 18 21" fill="none" xmlns="http://www.w3.org/2000/svg">
<path d="M15 20.5485C14.1667 20.5485 13.4583 20.2568 12.875 19.6735C12.2917 19.0901 12 18.3818 12 17.5485C12 17.4485 12.025 17.2151 12.075 16.8485L5.05 12.7485C4.78333 12.9985 4.475 13.1945 4.125 13.3365C3.775 13.4785 3.4 13.5491 3 13.5485C2.16667 13.5485 1.45833 13.2568 0.875 12.6735C0.291667 12.0901 0 11.3818 0 10.5485C0 9.71513 0.291667 9.00679 0.875 8.42346C1.45833 7.84013 2.16667 7.54846 3 7.54846C3.4 7.54846 3.775 7.61946 4.125 7.76146C4.475 7.90346 4.78333 8.09913 5.05 8.34846L12.075 4.24846C12.0417 4.1318 12.021 4.01946 12.013 3.91146C12.005 3.80346 12.0007 3.68246 12 3.54846C12 2.71513 12.2917 2.0068 12.875 1.42346C13.4583 0.840129 14.1667 0.548462 15 0.548462C15.8333 0.548462 16.5417 0.840129 17.125 1.42346C17.7083 2.0068 18 2.71513 18 3.54846C18 4.3818 17.7083 5.09013 17.125 5.67346C16.5417 6.2568 15.8333 6.54846 15 6.54846C14.6 6.54846 14.225 6.47746 13.875 6.33546C13.525 6.19346 13.2167 5.9978 12.95 5.74846L5.925 9.84846C5.95833 9.96513 5.97933 10.0778 5.988 10.1865C5.99667 10.2951 6.00067 10.4158 6 10.5485C5.99933 10.6811 5.99533 10.8021 5.988 10.9115C5.98067 11.0208 5.95967 11.1331 5.925 11.2485L12.95 15.3485C13.2167 15.0985 13.525 14.9028 13.875 14.7615C14.225 14.6201 14.6 14.5491 15 14.5485C15.8333 14.5485 16.5417 14.8401 17.125 15.4235C17.7083 16.0068 18 16.7151 18 17.5485C18 18.3818 17.7083 19.0901 17.125 19.6735C16.5417 20.2568 15.8333 20.5485 15 20.5485Z" fill="black"/>
</svg>
