<svg width="18" height="23" viewBox="0 0 18 23" fill="none" xmlns="http://www.w3.org/2000/svg">
<path fill-rule="evenodd" clip-rule="evenodd" d="M12.2527 0.596436C12.783 0.596549 13.2917 0.807337 13.6667 1.18244L17.0807 4.59644C17.4558 4.97142 17.6665 5.48005 17.6667 6.01044V14.5964C17.6667 15.1269 17.4559 15.6356 17.0809 16.0106C16.7058 16.3857 16.1971 16.5964 15.6667 16.5964H13.6667V18.5964C13.6667 19.1269 13.4559 19.6356 13.0809 20.0106C12.7058 20.3857 12.1971 20.5964 11.6667 20.5964H2.66666C2.13622 20.5964 1.62752 20.3857 1.25244 20.0106C0.87737 19.6356 0.666656 19.1269 0.666656 18.5964V6.59644C0.666656 6.066 0.87737 5.55729 1.25244 5.18222C1.62752 4.80715 2.13622 4.59644 2.66666 4.59644H4.66666V2.59644C4.66666 2.066 4.87737 1.55729 5.25244 1.18222C5.62752 0.807149 6.13622 0.596436 6.66666 0.596436H12.2527ZM4.66666 6.59644H2.66666V18.5964H11.6667V16.5964H6.66666C6.13622 16.5964 5.62752 16.3857 5.25244 16.0106C4.87737 15.6356 4.66666 15.1269 4.66666 14.5964V6.59644ZM10.6667 2.59644H6.66666V14.5964H15.6667V7.59644H12.1667C11.7938 7.59642 11.4343 7.45752 11.1582 7.20682C10.8822 6.95612 10.7095 6.6116 10.6737 6.24044L10.6667 6.09644V2.59644ZM12.6667 3.01044V5.59644H15.2527L12.6667 3.01044Z" fill="black"/>
</svg>
