<svg width="20" height="20" viewBox="0 0 20 20" fill="none" xmlns="http://www.w3.org/2000/svg">
<path fill-rule="evenodd" clip-rule="evenodd" d="M14.8582 12.0263L19.4819 16.1159L18.0006 17.4261L15.9057 15.5736V19.8226H13.8108V15.5736L11.7158 17.4261L10.2345 16.1159L14.8582 12.0263ZM11.717 0.369019L16.9543 5.00128V12.549L14.8649 10.7011L14.8593 10.7059V5.76877L10.8493 2.22193H2.28983V17.0451H9.82749L11.7223 18.721L12.7691 17.7951L12.7694 18.898H0.194885V0.369062L11.717 0.369019ZM10.6695 13.3393V14.4117L9.78708 15.1922H3.33728V13.3393H10.6695ZM9.81846 4.0748L12.7645 6.68044L6.28327 12.4128H3.33728V9.8072L9.81846 4.0748ZM9.81797 6.0398L4.90847 10.3821V11.0232H5.63122L10.5417 6.68L9.81797 6.0398Z" fill="black"/>
</svg>
